<svg width="23" height="22" viewBox="0 0 23 22" fill="none" xmlns="http://www.w3.org/2000/svg">
<path fill-rule="evenodd" clip-rule="evenodd" d="M3.04912 2.65828C2.94683 2.65057 2.80691 2.64998 2.55424 2.64998H0.9C0.402944 2.64998 0 2.24704 0 1.74998C0 1.25292 0.402944 0.849979 0.9 0.849979H2.55424C2.56307 0.849979 2.57188 0.849978 2.58067 0.849977C2.79702 0.849955 3.00609 0.849934 3.18436 0.863366C3.38117 0.878194 3.60395 0.912647 3.83292 1.01479C4.15863 1.16007 4.43687 1.3941 4.63581 1.6901C4.77568 1.89818 4.84779 2.11177 4.89612 2.30312C4.9399 2.47646 4.9757 2.68244 5.01275 2.89559C5.01425 2.90426 5.01576 2.91294 5.01727 2.92163L5.26953 4.37211L18.3621 4.75966C18.8747 4.77482 19.3119 4.78775 19.6708 4.82727C20.0483 4.86885 20.4145 4.94626 20.7635 5.13221C21.298 5.41693 21.7299 5.86181 21.9987 6.40444C22.1742 6.75882 22.2407 7.12715 22.2711 7.50576C22.3 7.86566 22.3 8.30303 22.3 8.81587V8.88365C22.3 9.36566 22.3 9.77815 22.2735 10.1191C22.2455 10.4788 22.1842 10.8287 22.0238 11.1693C21.7773 11.693 21.3797 12.131 20.8821 12.4269C20.5585 12.6192 20.2162 12.714 19.8608 12.7765C19.524 12.8358 19.1135 12.8755 18.6337 12.9219L8.90574 13.8633C8.41397 13.9109 7.99357 13.9516 7.64396 13.9578C7.27538 13.9642 6.91359 13.9354 6.55277 13.8028C6.00605 13.602 5.53247 13.2412 5.19371 12.7674C4.97014 12.4547 4.84627 12.1135 4.75469 11.7565C4.66782 11.4178 4.59547 11.0017 4.51083 10.5149L3.24389 3.23004C3.2006 2.98111 3.17604 2.84336 3.15092 2.74391C3.14316 2.71317 3.13716 2.69401 3.13351 2.6834C3.12716 2.67628 3.11982 2.6701 3.11172 2.66506C3.10064 2.66329 3.08073 2.66066 3.04912 2.65828ZM5.58433 6.18221L6.27842 10.1732C6.37045 10.7024 6.43117 11.0477 6.49825 11.3093C6.56259 11.5601 6.61618 11.6621 6.65794 11.7205C6.78644 11.9002 6.96607 12.037 7.17345 12.1132C7.24085 12.138 7.35338 12.1626 7.6123 12.158C7.88224 12.1533 8.23132 12.1202 8.76595 12.0684L18.4273 11.1335C18.9492 11.083 19.2894 11.0494 19.5489 11.0037C19.7975 10.96 19.9014 10.9158 19.9622 10.8797C20.1509 10.7675 20.3017 10.6013 20.3952 10.4027C20.4254 10.3387 20.4593 10.2311 20.4789 9.97935C20.4994 9.71665 20.5 9.3748 20.5 8.85048C20.5 8.2936 20.4993 7.92904 20.4769 7.64979C20.4553 7.38117 20.418 7.26855 20.3857 7.2034C20.2837 6.99757 20.1199 6.82883 19.9172 6.72083C19.853 6.68664 19.7416 6.64595 19.4737 6.61645C19.1952 6.58579 18.8309 6.57432 18.2742 6.55785L5.58433 6.18221ZM8.4 17.15C7.79249 17.15 7.3 17.6425 7.3 18.25C7.3 18.8575 7.79249 19.35 8.4 19.35C9.00751 19.35 9.5 18.8575 9.5 18.25C9.5 17.6425 9.00751 17.15 8.4 17.15ZM5.5 18.25C5.5 16.6484 6.79837 15.35 8.4 15.35C10.0016 15.35 11.3 16.6484 11.3 18.25C11.3 19.8516 10.0016 21.15 8.4 21.15C6.79837 21.15 5.5 19.8516 5.5 18.25ZM17.9 17.15C17.2925 17.15 16.8 17.6425 16.8 18.25C16.8 18.8575 17.2925 19.35 17.9 19.35C18.5075 19.35 19 18.8575 19 18.25C19 17.6425 18.5075 17.15 17.9 17.15ZM15 18.25C15 16.6484 16.2984 15.35 17.9 15.35C19.5016 15.35 20.8 16.6484 20.8 18.25C20.8 19.8516 19.5016 21.15 17.9 21.15C16.2984 21.15 15 19.8516 15 18.25Z" fill="#262F56"/>
</svg>
